<svg width="25" height="25" viewBox="0 0 25 25" fill="none" xmlns="http://www.w3.org/2000/svg">
<g clip-path="url(#clip0_34_877)">
<path d="M2.97619 0C1.33333 0 0 1.33333 0 2.97619V22.0238C0 23.6667 1.33333 25 2.97619 25H22.0238C23.6667 25 25 23.6667 25 22.0238V2.97619C25 1.33333 23.6667 0 22.0238 0H2.97619ZM12.5 2.97619C15.131 2.97619 17.2619 5.10714 17.2619 7.7381C17.2619 10.369 15.131 12.5 12.5 12.5C9.86905 12.5 7.7381 10.369 7.7381 7.7381C7.7381 5.10714 9.86905 2.97619 12.5 2.97619ZM12.5 5.35714C11.8685 5.35714 11.2629 5.60799 10.8164 6.05451C10.3699 6.50102 10.119 7.10663 10.119 7.7381C10.119 8.36956 10.3699 8.97517 10.8164 9.42168C11.2629 9.8682 11.8685 10.119 12.5 10.119C13.1315 10.119 13.7371 9.8682 14.1836 9.42168C14.6301 8.97517 14.881 8.36956 14.881 7.7381C14.881 7.10663 14.6301 6.50102 14.1836 6.05451C13.7371 5.60799 13.1315 5.35714 12.5 5.35714ZM17.2619 13.387C17.6369 13.387 18.0063 13.5652 18.2385 13.8986C18.6135 14.4343 18.4825 15.1791 17.9408 15.5541C17.048 16.1791 16.0655 16.6309 15.0298 16.9166L18.1013 19.994C18.5715 20.4582 18.5715 21.2084 18.1013 21.6727C17.8691 21.9049 17.5655 22.0238 17.2619 22.0238C16.9583 22.0238 16.6547 21.9049 16.4225 21.6727L12.5 17.756L8.57747 21.6727C8.34533 21.9049 8.04167 22.0238 7.7381 22.0238C7.43452 22.0238 7.13086 21.9049 6.89872 21.6727C6.42848 21.2084 6.42848 20.4582 6.89872 19.994L9.97024 16.9166C8.94048 16.6309 7.95782 16.1849 7.06496 15.5599C6.52925 15.1849 6.39235 14.4461 6.76735 13.9044C6.99949 13.5711 7.36877 13.3929 7.74972 13.3929C7.98186 13.3929 8.22033 13.4639 8.42866 13.6068C9.62509 14.4401 11.0357 14.881 12.5 14.881C13.9702 14.881 15.3806 14.4402 16.583 13.601C16.7853 13.4581 17.0238 13.387 17.2619 13.387Z" fill="black"/>
</g>
<defs>
<clipPath id="clip0_34_877">
<rect width="25" height="25" fill="white"/>
</clipPath>
</defs>
</svg>
