<svg width="25" height="25" viewBox="0 0 25 25" fill="none" xmlns="http://www.w3.org/2000/svg">
<path d="M12.5 0C19.4037 0 25 5.59632 25 12.5C25 19.4037 19.4037 25 12.5 25C5.59632 25 0 19.4037 0 12.5C0 5.59632 5.59632 0 12.5 0ZM16.8118 17.5956C17.0412 16.8904 18.1191 9.85956 18.2515 8.47426C18.2919 8.05441 18.1588 7.77574 17.9 7.65147C17.586 7.50074 17.1206 7.57574 16.5809 7.77059C15.8404 8.0375 6.37794 12.0551 5.83088 12.2882C5.31324 12.5088 4.82206 12.7485 4.82206 13.0971C4.82206 13.3419 4.96765 13.4794 5.36765 13.6221C5.78382 13.7706 6.83235 14.0882 7.45147 14.2588C8.04779 14.4235 8.72647 14.2809 9.10662 14.0441C9.50956 13.7934 14.164 10.6794 14.4978 10.4066C14.8316 10.1338 15.0978 10.4831 14.825 10.7566C14.5522 11.0294 11.3581 14.1301 10.936 14.5596C10.4243 15.0809 10.7875 15.6206 11.1309 15.8375C11.5228 16.0846 14.3404 17.9743 14.7654 18.2779C15.1904 18.5809 15.6199 18.7184 16.0147 18.7184C16.4088 18.7176 16.6154 18.1978 16.8118 17.5956Z" fill="black"/>
</svg>
