<svg width="25" height="25" viewBox="0 0 25 25" fill="none" xmlns="http://www.w3.org/2000/svg">
<g clip-path="url(#clip0_34_873)">
<path d="M12.5 0C5.60761 0 0 5.60761 0 12.5C0 19.3924 5.60761 25 12.5 25C19.3929 25 25 19.3924 25 12.5C25 5.60761 19.3929 0 12.5 0ZM17.9201 14.9647C19.1359 16.044 19.3886 16.4293 19.4299 16.4951C19.9337 17.294 18.8712 17.3913 18.8712 17.3913H16.6321C16.6321 17.3913 16.087 17.3973 15.6212 17.0886C14.862 16.5913 14.0668 15.6272 13.5082 15.7946C13.0391 15.9348 13.0435 16.5685 13.0435 17.1103C13.0435 17.3043 12.8766 17.3913 12.5 17.3913C12.1234 17.3913 11.9668 17.3913 11.8 17.3913C10.5734 17.3913 9.24239 16.9783 7.91467 15.5908C6.03641 13.6293 4.38913 9.67826 4.38913 9.67826C4.38913 9.67826 4.29185 9.47935 4.39783 9.35815C4.51793 9.22228 4.84456 9.23967 4.84456 9.23967L7.01576 9.23913C7.01576 9.23913 7.22011 9.27772 7.36685 9.38098C7.48804 9.46576 7.55543 9.62772 7.55543 9.62772C7.55543 9.62772 7.92011 10.8321 8.38478 11.6C9.29239 13.0989 9.71467 13.137 10.0228 12.9755C10.4728 12.7418 10.3261 11.1484 10.3261 11.1484C10.3261 11.1484 10.3462 10.4641 10.1114 10.1592C9.93043 9.92337 9.58424 9.79783 9.43315 9.77826C9.31087 9.7625 9.51522 9.54837 9.77554 9.42609C10.1234 9.2712 10.5967 9.23152 11.413 9.23913C12.0484 9.24511 12.2315 9.28315 12.4793 9.34022C13.2288 9.51304 13.0435 9.96902 13.0435 11.5701C13.0435 12.0832 12.9728 12.8043 13.3598 13.0435C13.5266 13.1467 14.0984 13.2728 15.1158 11.6207C15.5989 10.837 15.9832 9.53696 15.9832 9.53696C15.9832 9.53696 16.0625 9.39402 16.1859 9.32337C16.312 9.25109 16.3082 9.25272 16.481 9.25272C16.6538 9.25272 18.387 9.23913 18.7674 9.23913C19.1473 9.23913 19.5038 9.23478 19.5652 9.45761C19.6533 9.77772 19.2848 10.8745 18.3511 12.0647C16.8168 14.0179 16.6467 13.8353 17.9201 14.9647Z" fill="black"/>
</g>
<defs>
<clipPath id="clip0_34_873">
<rect width="25" height="25" fill="white"/>
</clipPath>
</defs>
</svg>
